STARTFONT 2.1
FONT -Fondu-ET Bembo Display Italic-Medium-R-Normal--13-120-75-75-P-66-MacRoman-1
SIZE 12 75 75
FONTBOUNDINGBOX 18 16 -4 -4
COMMENT Created by Fondu from a mac NFNT/FONT resource
STARTPROPERTIES 17
FOUNDRY "Fondu"
FAMILY_NAME "ET Bembo Display Italic"
WEIGHT_NAME "Medium"
SLANT "R"
SETWIDTH_NAME "Normal"
ADD_STYLE_NAME ""
PIXEL_SIZE 13
POINT_SIZE 120
RESOLUTION_X 75
RESOLUTION_Y 75
SPACING "P"
AVERAGE_WIDTH 66
CHARSET_REGISTRY "MacRoman"
CHARSET_ENCODING "1"
FONT_ASCENT 12
FONT_DESCENT 4
FACE_NAME "ET Bembo Display Italic"
ENDPROPERTIES
CHARS 205
STARTCHAR space
ENCODING 32
SWIDTH 254 0
DWIDTH 3 0
BBX 0 0 0 -4
BITMAP
ENDCHAR
STARTCHAR exclam
ENCODING 33
SWIDTH 297 0
DWIDTH 4 0
BBX 3 8 1 0
BITMAP
20
40
40
40
40
00
00
80
ENDCHAR
STARTCHAR quotedbl
ENCODING 34
SWIDTH 424 0
DWIDTH 6 0
BBX 5 4 2 4
BITMAP
50
D0
90
80
ENDCHAR
STARTCHAR numbersign
ENCODING 35
SWIDTH 680 0
DWIDTH 9 0
BBX 9 11 0 -1
BITMAP
1000
1200
1200
1200
7F00
2200
2400
7F00
2400
4400
4400
ENDCHAR
STARTCHAR dollar
ENCODING 36
SWIDTH 472 0
DWIDTH 6 0
BBX 5 10 1 -1
BITMAP
10
28
68
60
60
20
50
F0
D0
60
ENDCHAR
STARTCHAR percent
ENCODING 37
SWIDTH 731 0
DWIDTH 10 0
BBX 10 9 1 0
BITMAP
3100
5200
9400
9400
9B00
7280
1480
2500
0300
ENDCHAR
STARTCHAR ampersand
ENCODING 38
SWIDTH 720 0
DWIDTH 9 0
BBX 9 8 1 0
BITMAP
3C00
4000
7000
4780
8900
8100
C200
7C00
ENDCHAR
STARTCHAR quotesingle
ENCODING 39
SWIDTH 223 0
DWIDTH 4 0
BBX 3 2 1 6
BITMAP
20
20
ENDCHAR
STARTCHAR parenleft
ENCODING 40
SWIDTH 306 0
DWIDTH 4 0
BBX 5 11 1 -3
BITMAP
30
20
40
40
80
80
80
80
80
80
40
ENDCHAR
STARTCHAR parenright
ENCODING 41
SWIDTH 286 0
DWIDTH 4 0
BBX 5 10 -1 -2
BITMAP
10
10
10
10
10
10
10
20
20
40
ENDCHAR
STARTCHAR asterisk
ENCODING 42
SWIDTH 557 0
DWIDTH 7 0
BBX 7 7 0 3
BITMAP
10
54
54
38
7C
50
10
ENDCHAR
STARTCHAR plus
ENCODING 43
SWIDTH 679 0
DWIDTH 9 0
BBX 9 8 0 0
BITMAP
0800
0800
0800
7F00
0800
0800
0800
0800
ENDCHAR
STARTCHAR comma
ENCODING 44
SWIDTH 257 0
DWIDTH 3 0
BBX 2 2 1 0
BITMAP
40
40
ENDCHAR
STARTCHAR hyphen
ENCODING 45
SWIDTH 332 0
DWIDTH 4 0
BBX 4 1 0 2
BITMAP
70
ENDCHAR
STARTCHAR period
ENCODING 46
SWIDTH 244 0
DWIDTH 3 0
BBX 3 1 0 0
BITMAP
40
ENDCHAR
STARTCHAR slash
ENCODING 47
SWIDTH 349 0
DWIDTH 5 0
BBX 6 9 -1 -1
BITMAP
04
08
08
10
10
20
20
40
40
ENDCHAR
STARTCHAR zero
ENCODING 48
SWIDTH 432 0
DWIDTH 6 0
BBX 4 6 1 0
BITMAP
30
50
90
90
A0
C0
ENDCHAR
STARTCHAR one
ENCODING 49
SWIDTH 380 0
DWIDTH 5 0
BBX 5 6 0 0
BITMAP
10
10
10
20
20
20
ENDCHAR
STARTCHAR two
ENCODING 50
SWIDTH 414 0
DWIDTH 5 0
BBX 6 6 0 0
BITMAP
38
48
08
10
60
F0
ENDCHAR
STARTCHAR three
ENCODING 51
SWIDTH 427 0
DWIDTH 6 0
BBX 7 9 -1 -3
BITMAP
1C
24
04
08
04
04
04
08
70
ENDCHAR
STARTCHAR four
ENCODING 52
SWIDTH 448 0
DWIDTH 6 0
BBX 6 8 0 -3
BITMAP
08
18
28
48
7C
10
10
10
ENDCHAR
STARTCHAR five
ENCODING 53
SWIDTH 432 0
DWIDTH 6 0
BBX 5 8 0 -2
BITMAP
38
40
30
08
08
08
10
E0
ENDCHAR
STARTCHAR six
ENCODING 54
SWIDTH 463 0
DWIDTH 6 0
BBX 6 9 1 0
BITMAP
0C
30
60
58
E8
88
88
90
60
ENDCHAR
STARTCHAR seven
ENCODING 55
SWIDTH 409 0
DWIDTH 5 0
BBX 6 9 0 -3
BITMAP
78
48
10
10
20
20
40
40
40
ENDCHAR
STARTCHAR eight
ENCODING 56
SWIDTH 463 0
DWIDTH 6 0
BBX 5 8 1 0
BITMAP
38
48
50
20
50
90
90
60
ENDCHAR
STARTCHAR nine
ENCODING 57
SWIDTH 494 0
DWIDTH 6 0
BBX 6 9 0 -3
BITMAP
18
24
44
44
4C
78
18
30
C0
ENDCHAR
STARTCHAR colon
ENCODING 58
SWIDTH 297 0
DWIDTH 4 0
BBX 3 6 1 0
BITMAP
60
00
00
00
00
C0
ENDCHAR
STARTCHAR semicolon
ENCODING 59
SWIDTH 297 0
DWIDTH 4 0
BBX 4 8 0 -2
BITMAP
20
00
00
00
40
40
40
80
ENDCHAR
STARTCHAR less
ENCODING 60
SWIDTH 679 0
DWIDTH 9 0
BBX 8 7 0 0
BITMAP
01
06
38
40
30
0C
03
ENDCHAR
STARTCHAR equal
ENCODING 61
SWIDTH 679 0
DWIDTH 9 0
BBX 8 4 0 2
BITMAP
7F
00
00
7F
ENDCHAR
STARTCHAR greater
ENCODING 62
SWIDTH 679 0
DWIDTH 9 0
BBX 8 6 0 1
BITMAP
40
30
0E
01
0E
30
ENDCHAR
STARTCHAR question
ENCODING 63
SWIDTH 403 0
DWIDTH 5 0
BBX 5 8 0 0
BITMAP
30
08
08
30
40
40
00
40
ENDCHAR
STARTCHAR at
ENCODING 64
SWIDTH 933 0
DWIDTH 12 0
BBX 12 13 1 -3
BITMAP
0F80
30C0
6060
4620
8920
8920
9220
9240
9240
DF80
4020
30C0
1F00
ENDCHAR
STARTCHAR A
ENCODING 65
SWIDTH 693 0
DWIDTH 9 0
BBX 11 8 -2 0
BITMAP
0080
0380
0280
0480
0F80
0880
1080
2080
ENDCHAR
STARTCHAR B
ENCODING 66
SWIDTH 646 0
DWIDTH 8 0
BBX 9 8 0 0
BITMAP
1F00
1100
1100
3E00
3300
2100
2100
6600
ENDCHAR
STARTCHAR C
ENCODING 67
SWIDTH 712 0
DWIDTH 9 0
BBX 10 8 0 0
BITMAP
1F80
2080
4000
8000
8000
8000
4100
2600
ENDCHAR
STARTCHAR D
ENCODING 68
SWIDTH 793 0
DWIDTH 10 0
BBX 11 8 -1 0
BITMAP
1F80
0840
0820
1020
1020
1040
10C0
3300
ENDCHAR
STARTCHAR E
ENCODING 69
SWIDTH 662 0
DWIDTH 9 0
BBX 9 8 0 0
BITMAP
1F80
1000
1000
3E00
2000
2000
2000
6300
ENDCHAR
STARTCHAR F
ENCODING 70
SWIDTH 549 0
DWIDTH 7 0
BBX 8 8 0 0
BITMAP
1F
10
22
3E
22
20
20
60
ENDCHAR
STARTCHAR G
ENCODING 71
SWIDTH 747 0
DWIDTH 10 0
BBX 10 8 0 0
BITMAP
0F80
3000
6000
4000
4000
41C0
2080
1380
ENDCHAR
STARTCHAR H
ENCODING 72
SWIDTH 773 0
DWIDTH 10 0
BBX 12 8 -1 0
BITMAP
1860
0840
1040
1FC0
1040
10C0
3080
3080
ENDCHAR
STARTCHAR I
ENCODING 73
SWIDTH 356 0
DWIDTH 5 0
BBX 6 8 0 0
BITMAP
18
10
10
30
20
20
20
60
ENDCHAR
STARTCHAR J
ENCODING 74
SWIDTH 338 0
DWIDTH 4 0
BBX 9 12 -3 -4
BITMAP
0200
0200
0200
0600
0400
0400
0400
0400
0C00
0800
0800
7000
ENDCHAR
STARTCHAR K
ENCODING 75
SWIDTH 710 0
DWIDTH 9 0
BBX 11 8 0 0
BITMAP
18E0
1100
1600
3800
2800
2400
2200
6100
ENDCHAR
STARTCHAR L
ENCODING 76
SWIDTH 603 0
DWIDTH 8 0
BBX 9 8 0 0
BITMAP
1800
1000
1000
3000
2000
2000
2100
FF00
ENDCHAR
STARTCHAR M
ENCODING 77
SWIDTH 883 0
DWIDTH 11 0
BBX 14 8 -1 0
BITMAP
0C18
1470
1470
14A0
1520
2520
2620
2260
ENDCHAR
STARTCHAR N
ENCODING 78
SWIDTH 789 0
DWIDTH 10 0
BBX 12 8 0 0
BITMAP
1060
1840
2880
2480
2680
4280
4180
4100
ENDCHAR
STARTCHAR O
ENCODING 79
SWIDTH 819 0
DWIDTH 11 0
BBX 10 8 1 0
BITMAP
1E00
6100
4080
8080
8080
8180
4100
2600
ENDCHAR
STARTCHAR P
ENCODING 80
SWIDTH 564 0
DWIDTH 7 0
BBX 8 8 0 0
BITMAP
1E
11
31
23
24
20
20
60
ENDCHAR
STARTCHAR Q
ENCODING 81
SWIDTH 798 0
DWIDTH 10 0
BBX 10 11 0 -3
BITMAP
0F00
3080
6040
4040
4040
4040
4080
2100
1E00
0600
01C0
ENDCHAR
STARTCHAR R
ENCODING 82
SWIDTH 624 0
DWIDTH 8 0
BBX 10 8 -1 0
BITMAP
0F00
0880
0980
1100
1E00
1200
1300
3180
ENDCHAR
STARTCHAR S
ENCODING 83
SWIDTH 517 0
DWIDTH 7 0
BBX 8 8 0 0
BITMAP
1E
20
20
18
0C
02
82
64
ENDCHAR
STARTCHAR T
ENCODING 84
SWIDTH 630 0
DWIDTH 8 0
BBX 10 9 0 0
BITMAP
4000
7F80
0400
0800
0800
0800
0800
1800
1800
ENDCHAR
STARTCHAR U
ENCODING 85
SWIDTH 740 0
DWIDTH 10 0
BBX 11 8 0 0
BITMAP
30C0
2080
2080
6080
4100
4100
4100
3200
ENDCHAR
STARTCHAR V
ENCODING 86
SWIDTH 639 0
DWIDTH 8 0
BBX 9 8 1 0
BITMAP
4180
4200
4400
4800
5000
5000
6000
4000
ENDCHAR
STARTCHAR W
ENCODING 87
SWIDTH 892 0
DWIDTH 12 0
BBX 13 8 0 0
BITMAP
6210
2220
6640
4A40
5280
6300
6200
4200
ENDCHAR
STARTCHAR X
ENCODING 88
SWIDTH 704 0
DWIDTH 9 0
BBX 12 8 -1 0
BITMAP
0840
0C80
0500
0200
0600
0900
1180
2080
ENDCHAR
STARTCHAR Y
ENCODING 89
SWIDTH 639 0
DWIDTH 8 0
BBX 9 8 1 0
BITMAP
6100
2200
2400
1800
1000
1000
1000
3000
ENDCHAR
STARTCHAR Z
ENCODING 90
SWIDTH 687 0
DWIDTH 9 0
BBX 11 8 -1 0
BITMAP
0FC0
1080
0100
0200
0C00
1800
3000
6180
ENDCHAR
STARTCHAR bracketleft
ENCODING 91
SWIDTH 307 0
DWIDTH 4 0
BBX 6 12 0 -3
BITMAP
1C
10
10
20
20
20
20
40
40
40
40
60
ENDCHAR
STARTCHAR backslash
ENCODING 92
SWIDTH 223 0
DWIDTH 3 0
BBX 3 8 0 0
BITMAP
40
40
40
40
40
20
20
20
ENDCHAR
STARTCHAR bracketright
ENCODING 93
SWIDTH 307 0
DWIDTH 4 0
BBX 6 12 -1 -3
BITMAP
18
08
08
08
10
10
10
10
10
20
20
E0
ENDCHAR
STARTCHAR asciicircum
ENCODING 94
SWIDTH 434 0
DWIDTH 6 0
BBX 7 6 0 4
BITMAP
10
30
28
28
44
40
ENDCHAR
STARTCHAR underscore
ENCODING 95
SWIDTH 509 0
DWIDTH 7 0
BBX 8 1 -1 -3
BITMAP
7F
ENDCHAR
STARTCHAR grave
ENCODING 96
SWIDTH 339 0
DWIDTH 4 0
BBX 3 3 2 5
BITMAP
40
40
40
ENDCHAR
STARTCHAR a
ENCODING 97
SWIDTH 416 0
DWIDTH 5 0
BBX 5 6 0 0
BITMAP
18
70
90
90
B0
D0
ENDCHAR
STARTCHAR b
ENCODING 98
SWIDTH 415 0
DWIDTH 5 0
BBX 6 10 0 0
BITMAP
20
20
20
20
58
68
48
48
50
60
ENDCHAR
STARTCHAR c
ENCODING 99
SWIDTH 300 0
DWIDTH 4 0
BBX 5 6 0 0
BITMAP
30
40
40
80
80
60
ENDCHAR
STARTCHAR d
ENCODING 100
SWIDTH 450 0
DWIDTH 6 0
BBX 6 9 1 0
BITMAP
08
08
08
08
78
90
90
B0
D0
ENDCHAR
STARTCHAR e
ENCODING 101
SWIDTH 364 0
DWIDTH 5 0
BBX 5 6 0 0
BITMAP
38
C8
B0
C0
80
60
ENDCHAR
STARTCHAR f
ENCODING 102
SWIDTH 283 0
DWIDTH 4 0
BBX 9 14 -3 -4
BITMAP
0380
0400
0400
0400
0E00
0800
0800
0800
0800
0800
0800
1000
1000
6000
ENDCHAR
STARTCHAR g
ENCODING 103
SWIDTH 398 0
DWIDTH 5 0
BBX 7 10 -1 -4
BITMAP
1E
24
24
24
28
30
10
78
84
48
ENDCHAR
STARTCHAR h
ENCODING 104
SWIDTH 457 0
DWIDTH 6 0
BBX 6 10 0 0
BITMAP
20
20
20
20
28
78
68
48
4C
48
ENDCHAR
STARTCHAR i
ENCODING 105
SWIDTH 255 0
DWIDTH 3 0
BBX 4 8 0 0
BITMAP
20
00
00
60
40
40
40
40
ENDCHAR
STARTCHAR j
ENCODING 106
SWIDTH 245 0
DWIDTH 3 0
BBX 6 12 -2 -4
BITMAP
08
00
00
08
08
10
10
10
10
20
20
C0
ENDCHAR
STARTCHAR k
ENCODING 107
SWIDTH 459 0
DWIDTH 6 0
BBX 6 10 0 0
BITMAP
20
20
20
20
4C
74
48
70
50
08
ENDCHAR
STARTCHAR l
ENCODING 108
SWIDTH 256 0
DWIDTH 3 0
BBX 4 10 0 0
BITMAP
20
20
20
20
20
40
40
40
40
40
ENDCHAR
STARTCHAR m
ENCODING 109
SWIDTH 674 0
DWIDTH 9 0
BBX 9 6 0 0
BITMAP
6900
7F00
6D00
4900
4A00
4300
ENDCHAR
STARTCHAR n
ENCODING 110
SWIDTH 469 0
DWIDTH 6 0
BBX 6 6 0 0
BITMAP
28
78
68
48
4C
48
ENDCHAR
STARTCHAR o
ENCODING 111
SWIDTH 398 0
DWIDTH 5 0
BBX 5 6 0 0
BITMAP
30
48
88
88
90
60
ENDCHAR
STARTCHAR p
ENCODING 112
SWIDTH 445 0
DWIDTH 6 0
BBX 7 10 -2 -4
BITMAP
16
1A
12
12
24
28
30
20
20
60
ENDCHAR
STARTCHAR q
ENCODING 113
SWIDTH 426 0
DWIDTH 6 0
BBX 5 9 1 -3
BITMAP
18
70
90
90
B0
D0
20
20
20
ENDCHAR
STARTCHAR r
ENCODING 114
SWIDTH 323 0
DWIDTH 4 0
BBX 5 6 0 0
BITMAP
50
60
60
40
40
40
ENDCHAR
STARTCHAR s
ENCODING 115
SWIDTH 320 0
DWIDTH 4 0
BBX 5 6 0 0
BITMAP
30
40
40
20
20
E0
ENDCHAR
STARTCHAR t
ENCODING 116
SWIDTH 282 0
DWIDTH 4 0
BBX 4 7 0 0
BITMAP
20
70
20
40
40
40
40
ENDCHAR
STARTCHAR u
ENCODING 117
SWIDTH 487 0
DWIDTH 6 0
BBX 6 6 0 0
BITMAP
24
28
48
58
6C
48
ENDCHAR
STARTCHAR v
ENCODING 118
SWIDTH 406 0
DWIDTH 5 0
BBX 5 6 0 0
BITMAP
48
C8
50
50
60
40
ENDCHAR
STARTCHAR w
ENCODING 119
SWIDTH 610 0
DWIDTH 8 0
BBX 8 6 0 0
BITMAP
41
49
4A
4A
7C
48
ENDCHAR
STARTCHAR x
ENCODING 120
SWIDTH 504 0
DWIDTH 7 0
BBX 8 6 -1 0
BITMAP
13
14
08
08
14
64
ENDCHAR
STARTCHAR y
ENCODING 121
SWIDTH 437 0
DWIDTH 6 0
BBX 7 10 -1 -4
BITMAP
22
52
14
14
18
10
10
20
20
40
ENDCHAR
STARTCHAR z
ENCODING 122
SWIDTH 488 0
DWIDTH 6 0
BBX 7 6 0 0
BITMAP
30
0C
18
20
64
98
ENDCHAR
STARTCHAR braceleft
ENCODING 123
SWIDTH 403 0
DWIDTH 5 0
BBX 5 12 0 -4
BITMAP
10
20
20
20
20
40
40
20
20
20
20
10
ENDCHAR
STARTCHAR bar
ENCODING 124
SWIDTH 519 0
DWIDTH 7 0
BBX 1 11 3 0
BITMAP
80
80
80
80
80
80
80
80
80
80
80
ENDCHAR
STARTCHAR braceright
ENCODING 125
SWIDTH 403 0
DWIDTH 5 0
BBX 5 11 0 -1
BITMAP
40
20
20
20
20
20
10
20
20
20
20
ENDCHAR
STARTCHAR asciitilde
ENCODING 126
SWIDTH 551 0
DWIDTH 7 0
BBX 7 2 1 3
BITMAP
70
9C
ENDCHAR
STARTCHAR Adieresis
ENCODING 128
SWIDTH 693 0
DWIDTH 9 0
BBX 10 10 -1 0
BITMAP
0140
0080
0180
0280
0480
0480
0F80
1080
2080
6180
ENDCHAR
STARTCHAR Aring
ENCODING 129
SWIDTH 693 0
DWIDTH 9 0
BBX 11 12 -2 0
BITMAP
00C0
0120
00E0
0080
0180
0280
0480
0880
0F80
1080
2080
6080
ENDCHAR
STARTCHAR Ccedilla
ENCODING 130
SWIDTH 712 0
DWIDTH 9 0
BBX 10 11 0 -3
BITMAP
1F80
2080
4000
8000
8000
8000
4100
2700
1800
0800
1800
ENDCHAR
STARTCHAR Eacute
ENCODING 131
SWIDTH 662 0
DWIDTH 9 0
BBX 9 11 0 0
BITMAP
0200
0000
0000
1F80
1000
1000
3E00
2000
2000
2000
6300
ENDCHAR
STARTCHAR Ntilde
ENCODING 132
SWIDTH 789 0
DWIDTH 10 0
BBX 12 11 0 0
BITMAP
0680
0100
0000
1060
1840
2880
2480
2680
4280
4180
4100
ENDCHAR
STARTCHAR Odieresis
ENCODING 133
SWIDTH 819 0
DWIDTH 11 0
BBX 10 10 1 0
BITMAP
0A00
0000
1E00
6100
4080
8080
8080
8180
4100
2600
ENDCHAR
STARTCHAR Udieresis
ENCODING 134
SWIDTH 740 0
DWIDTH 10 0
BBX 11 10 0 0
BITMAP
0900
0000
60C0
6080
4080
4080
4100
4100
4100
2600
ENDCHAR
STARTCHAR aacute
ENCODING 135
SWIDTH 416 0
DWIDTH 5 0
BBX 5 8 0 0
BITMAP
10
00
18
70
90
90
B0
D0
ENDCHAR
STARTCHAR agrave
ENCODING 136
SWIDTH 416 0
DWIDTH 5 0
BBX 5 8 0 0
BITMAP
10
00
18
70
90
90
B0
D0
ENDCHAR
STARTCHAR acircumflex
ENCODING 137
SWIDTH 416 0
DWIDTH 5 0
BBX 6 9 0 0
BITMAP
08
18
00
18
70
90
90
B0
D0
ENDCHAR
STARTCHAR adieresis
ENCODING 138
SWIDTH 416 0
DWIDTH 5 0
BBX 6 7 0 0
BITMAP
28
00
38
48
90
B0
D0
ENDCHAR
STARTCHAR atilde
ENCODING 139
SWIDTH 416 0
DWIDTH 5 0
BBX 6 9 0 0
BITMAP
24
58
48
18
70
90
90
B0
D0
ENDCHAR
STARTCHAR aring
ENCODING 140
SWIDTH 416 0
DWIDTH 5 0
BBX 5 8 0 0
BITMAP
38
38
18
68
98
90
B0
D0
ENDCHAR
STARTCHAR ccedilla
ENCODING 141
SWIDTH 300 0
DWIDTH 4 0
BBX 4 8 0 -2
BITMAP
30
40
80
80
80
40
40
40
ENDCHAR
STARTCHAR eacute
ENCODING 142
SWIDTH 364 0
DWIDTH 5 0
BBX 5 8 0 0
BITMAP
18
00
38
C8
B0
C0
80
E0
ENDCHAR
STARTCHAR egrave
ENCODING 143
SWIDTH 364 0
DWIDTH 5 0
BBX 5 8 0 0
BITMAP
20
10
38
C8
B0
C0
80
E0
ENDCHAR
STARTCHAR ecircumflex
ENCODING 144
SWIDTH 364 0
DWIDTH 5 0
BBX 6 9 0 0
BITMAP
18
28
04
38
C8
B0
C0
80
E0
ENDCHAR
STARTCHAR edieresis
ENCODING 145
SWIDTH 364 0
DWIDTH 5 0
BBX 5 7 0 0
BITMAP
28
38
48
B0
C0
80
E0
ENDCHAR
STARTCHAR iacute
ENCODING 146
SWIDTH 255 0
DWIDTH 3 0
BBX 4 8 0 0
BITMAP
30
20
00
60
40
40
40
40
ENDCHAR
STARTCHAR igrave
ENCODING 147
SWIDTH 255 0
DWIDTH 3 0
BBX 3 8 0 0
BITMAP
40
40
20
60
40
40
40
40
ENDCHAR
STARTCHAR icircumflex
ENCODING 148
SWIDTH 255 0
DWIDTH 3 0
BBX 4 9 0 0
BITMAP
30
50
00
60
40
40
40
40
40
ENDCHAR
STARTCHAR idieresis
ENCODING 149
SWIDTH 255 0
DWIDTH 3 0
BBX 4 7 0 0
BITMAP
50
00
60
40
40
40
40
ENDCHAR
STARTCHAR ntilde
ENCODING 150
SWIDTH 469 0
DWIDTH 6 0
BBX 7 8 0 0
BITMAP
30
0C
28
78
68
48
4C
48
ENDCHAR
STARTCHAR oacute
ENCODING 151
SWIDTH 398 0
DWIDTH 5 0
BBX 5 8 0 0
BITMAP
18
10
30
48
88
88
90
60
ENDCHAR
STARTCHAR ograve
ENCODING 152
SWIDTH 398 0
DWIDTH 5 0
BBX 5 8 0 0
BITMAP
10
00
30
48
88
88
90
60
ENDCHAR
STARTCHAR ocircumflex
ENCODING 153
SWIDTH 398 0
DWIDTH 5 0
BBX 6 9 0 0
BITMAP
18
28
00
30
48
88
88
90
60
ENDCHAR
STARTCHAR odieresis
ENCODING 154
SWIDTH 398 0
DWIDTH 5 0
BBX 6 7 0 0
BITMAP
28
30
48
88
88
90
60
ENDCHAR
STARTCHAR otilde
ENCODING 155
SWIDTH 398 0
DWIDTH 5 0
BBX 6 9 0 0
BITMAP
30
54
08
30
48
88
88
90
60
ENDCHAR
STARTCHAR uacute
ENCODING 156
SWIDTH 487 0
DWIDTH 6 0
BBX 6 8 0 0
BITMAP
08
00
24
28
48
58
6C
48
ENDCHAR
STARTCHAR ugrave
ENCODING 157
SWIDTH 487 0
DWIDTH 6 0
BBX 6 8 0 0
BITMAP
10
00
24
28
48
58
6C
48
ENDCHAR
STARTCHAR ucircumflex
ENCODING 158
SWIDTH 487 0
DWIDTH 6 0
BBX 6 9 0 0
BITMAP
08
18
04
24
28
48
58
6C
48
ENDCHAR
STARTCHAR udieresis
ENCODING 159
SWIDTH 487 0
DWIDTH 6 0
BBX 6 7 0 0
BITMAP
24
44
C4
4C
58
68
48
ENDCHAR
STARTCHAR dagger
ENCODING 160
SWIDTH 487 0
DWIDTH 6 0
BBX 6 14 1 -4
BITMAP
10
10
10
20
F8
20
20
20
20
40
40
40
40
40
ENDCHAR
STARTCHAR degree
ENCODING 161
SWIDTH 403 0
DWIDTH 5 0
BBX 5 4 1 4
BITMAP
70
88
88
70
ENDCHAR
STARTCHAR cent
ENCODING 162
SWIDTH 276 0
DWIDTH 4 0
BBX 4 9 0 -2
BITMAP
20
20
40
C0
C0
C0
E0
80
80
ENDCHAR
STARTCHAR sterling
ENCODING 163
SWIDTH 742 0
DWIDTH 10 0
BBX 11 13 0 -4
BITMAP
00C0
0100
0200
0200
0400
0400
0800
0800
3E00
1080
3C80
4F80
4700
ENDCHAR
STARTCHAR section
ENCODING 164
SWIDTH 487 0
DWIDTH 6 0
BBX 9 12 -1 -3
BITMAP
0700
0800
1800
2800
2400
2400
1400
1400
0C00
1400
0800
7000
ENDCHAR
STARTCHAR bullet
ENCODING 165
SWIDTH 360 0
DWIDTH 5 0
BBX 4 4 1 2
BITMAP
60
70
70
60
ENDCHAR
STARTCHAR paragraph
ENCODING 166
SWIDTH 456 0
DWIDTH 6 0
BBX 7 12 -1 -4
BITMAP
3E
7C
7C
7C
3C
0C
0C
0C
0C
0C
0C
0C
ENDCHAR
STARTCHAR germandbls
ENCODING 167
SWIDTH 446 0
DWIDTH 6 0
BBX 10 12 -4 -3
BITMAP
01C0
0240
0440
0580
0580
0480
0480
0880
0B00
0800
1000
7000
ENDCHAR
STARTCHAR registered
ENCODING 168
SWIDTH 773 0
DWIDTH 10 0
BBX 10 9 1 0
BITMAP
1E00
7D80
5280
9240
9C40
9440
9280
7B80
1E00
ENDCHAR
STARTCHAR copyright
ENCODING 169
SWIDTH 773 0
DWIDTH 10 0
BBX 10 9 1 0
BITMAP
1E00
7F80
7080
A040
A040
A040
B080
5E80
3F00
ENDCHAR
STARTCHAR trademark
ENCODING 170
SWIDTH 996 0
DWIDTH 13 0
BBX 13 6 0 3
BITMAP
FF18
2B30
22D0
22D0
22D0
7738
ENDCHAR
STARTCHAR acute
ENCODING 171
SWIDTH 339 0
DWIDTH 4 0
BBX 3 1 2 7
BITMAP
40
ENDCHAR
STARTCHAR dieresis
ENCODING 172
SWIDTH 339 0
DWIDTH 4 0
BBX 4 1 1 6
BITMAP
50
ENDCHAR
STARTCHAR AE
ENCODING 174
SWIDTH 965 0
DWIDTH 13 0
BBX 14 8 -1 0
BITMAP
01FC
0280
0488
09F0
0F00
1100
2100
6318
ENDCHAR
STARTCHAR Oslash
ENCODING 175
SWIDTH 806 0
DWIDTH 10 0
BBX 10 9 1 -1
BITMAP
1E00
2300
6280
4480
4880
5180
6100
2600
1800
ENDCHAR
STARTCHAR plusminus
ENCODING 177
SWIDTH 679 0
DWIDTH 9 0
BBX 9 9 0 0
BITMAP
0800
0800
0800
7F00
0800
0800
0800
0000
7F00
ENDCHAR
STARTCHAR yen
ENCODING 180
SWIDTH 509 0
DWIDTH 7 0
BBX 9 8 0 0
BITMAP
2200
7F00
1800
FE00
1000
1000
3000
3000
ENDCHAR
STARTCHAR mu
ENCODING 181
SWIDTH 509 0
DWIDTH 7 0
BBX 8 9 -1 -3
BITMAP
12
12
22
24
24
7E
40
40
80
ENDCHAR
STARTCHAR ordfeminine
ENCODING 187
SWIDTH 265 0
DWIDTH 3 0
BBX 4 3 1 5
BITMAP
60
A0
E0
ENDCHAR
STARTCHAR ordmasculine
ENCODING 188
SWIDTH 265 0
DWIDTH 3 0
BBX 3 3 1 5
BITMAP
E0
A0
40
ENDCHAR
STARTCHAR ae
ENCODING 190
SWIDTH 583 0
DWIDTH 8 0
BBX 8 6 0 0
BITMAP
1F
65
4A
8C
98
EC
ENDCHAR
STARTCHAR oslash
ENCODING 191
SWIDTH 403 0
DWIDTH 5 0
BBX 4 6 1 0
BITMAP
30
D0
B0
D0
A0
C0
ENDCHAR
STARTCHAR questiondown
ENCODING 192
SWIDTH 403 0
DWIDTH 5 0
BBX 5 9 0 -3
BITMAP
10
00
10
20
60
C0
80
80
70
ENDCHAR
STARTCHAR exclamdown
ENCODING 193
SWIDTH 297 0
DWIDTH 4 0
BBX 4 10 0 -4
BITMAP
20
00
20
20
40
40
40
40
40
40
ENDCHAR
STARTCHAR logicalnot
ENCODING 194
SWIDTH 679 0
DWIDTH 9 0
BBX 8 4 0 2
BITMAP
7F
01
01
01
ENDCHAR
STARTCHAR guillemotleft
ENCODING 199
SWIDTH 446 0
DWIDTH 6 0
BBX 5 6 1 0
BITMAP
28
50
50
90
50
50
ENDCHAR
STARTCHAR guillemotright
ENCODING 200
SWIDTH 446 0
DWIDTH 6 0
BBX 5 6 1 0
BITMAP
50
50
48
50
50
A0
ENDCHAR
STARTCHAR ellipsis
ENCODING 201
SWIDTH 1017 0
DWIDTH 13 0
BBX 11 1 1 0
BITMAP
4460
ENDCHAR
STARTCHAR Agrave
ENCODING 203
SWIDTH 693 0
DWIDTH 9 0
BBX 11 12 -2 0
BITMAP
0080
0080
0000
0080
0180
0280
0280
0480
0F80
0880
1080
2080
ENDCHAR
STARTCHAR Atilde
ENCODING 204
SWIDTH 693 0
DWIDTH 9 0
BBX 11 12 -1 0
BITMAP
0100
02C0
02C0
0000
0180
0380
0580
0980
0F80
1180
2180
6180
ENDCHAR
STARTCHAR Otilde
ENCODING 205
SWIDTH 819 0
DWIDTH 11 0
BBX 10 12 1 0
BITMAP
0900
1600
1200
0000
1E00
6100
4080
8080
8080
8180
4100
2600
ENDCHAR
STARTCHAR OE
ENCODING 206
SWIDTH 1049 0
DWIDTH 14 0
BBX 13 8 1 0
BITMAP
1FF0
6100
C100
83E0
8200
8200
4210
2620
ENDCHAR
STARTCHAR oe
ENCODING 207
SWIDTH 581 0
DWIDTH 8 0
BBX 8 6 0 0
BITMAP
37
4D
8A
8C
98
EC
ENDCHAR
STARTCHAR endash
ENCODING 208
SWIDTH 617 0
DWIDTH 8 0
BBX 8 1 0 2
BITMAP
7E
ENDCHAR
STARTCHAR emdash
ENCODING 209
SWIDTH 822 0
DWIDTH 11 0
BBX 9 1 1 2
BITMAP
FF80
ENDCHAR
STARTCHAR quotedblleft
ENCODING 210
SWIDTH 509 0
DWIDTH 7 0
BBX 4 3 3 5
BITMAP
50
A0
A0
ENDCHAR
STARTCHAR quotedblright
ENCODING 211
SWIDTH 509 0
DWIDTH 7 0
BBX 6 2 1 6
BITMAP
24
24
ENDCHAR
STARTCHAR quoteleft
ENCODING 212
SWIDTH 297 0
DWIDTH 4 0
BBX 3 3 2 5
BITMAP
40
40
40
ENDCHAR
STARTCHAR quoteright
ENCODING 213
SWIDTH 273 0
DWIDTH 4 0
BBX 3 2 1 6
BITMAP
20
20
ENDCHAR
STARTCHAR divide
ENCODING 214
SWIDTH 680 0
DWIDTH 9 0
BBX 8 7 1 1
BITMAP
10
00
00
FE
00
00
10
ENDCHAR
STARTCHAR ydieresis
ENCODING 216
SWIDTH 437 0
DWIDTH 6 0
BBX 7 10 -1 -3
BITMAP
14
24
54
14
18
10
10
20
20
20
ENDCHAR
STARTCHAR Ydieresis
ENCODING 217
SWIDTH 639 0
DWIDTH 8 0
BBX 10 10 1 0
BITMAP
1200
0000
4100
2200
2400
3800
1000
1000
2000
3000
ENDCHAR
STARTCHAR fraction
ENCODING 218
SWIDTH 191 0
DWIDTH 2 0
BBX 10 8 -3 0
BITMAP
0100
0200
0400
0400
0800
1000
2000
4000
ENDCHAR
STARTCHAR guilsinglleft
ENCODING 220
SWIDTH 730 0
DWIDTH 9 0
BBX 13 14 -3 -4
BITMAP
03B0
04D0
0480
0480
0FF0
0890
08A0
08A0
0920
0930
0900
1100
1200
6C00
ENDCHAR
STARTCHAR guilsinglright
ENCODING 221
SWIDTH 737 0
DWIDTH 10 0
BBX 13 14 -3 -4
BITMAP
03B8
04D0
0490
0490
0FF0
0890
0890
0920
0920
0930
0900
1100
1200
6C00
ENDCHAR
STARTCHAR fi
ENCODING 222
SWIDTH 504 0
DWIDTH 7 0
BBX 9 14 -2 -4
BITMAP
0300
0400
0800
0800
1F00
0900
0A00
1200
1200
1300
1000
1000
2000
C000
ENDCHAR
STARTCHAR fl
ENCODING 223
SWIDTH 487 0
DWIDTH 6 0
BBX 10 14 -3 -4
BITMAP
0380
0480
0480
0480
0F80
0500
0900
0900
0900
0980
0800
1000
1000
6000
ENDCHAR
STARTCHAR daggerdbl
ENCODING 224
SWIDTH 508 0
DWIDTH 7 0
BBX 13 14 -3 -4
BITMAP
03B0
04D0
0480
0480
0FC0
0880
0880
0880
0900
0900
0900
1100
1200
6C00
ENDCHAR
STARTCHAR periodcentered
ENCODING 225
SWIDTH 297 0
DWIDTH 4 0
BBX 2 1 1 3
BITMAP
40
ENDCHAR
STARTCHAR quotesinglbase
ENCODING 226
SWIDTH 297 0
DWIDTH 4 0
BBX 2 3 1 -1
BITMAP
40
40
80
ENDCHAR
STARTCHAR quotedblbase
ENCODING 227
SWIDTH 509 0
DWIDTH 7 0
BBX 6 3 0 -1
BITMAP
48
48
48
ENDCHAR
STARTCHAR perthousand
ENCODING 228
SWIDTH 1017 0
DWIDTH 13 0
BBX 14 9 0 -1
BITMAP
3100
5200
5200
5598
6AA8
0AA8
14C8
2330
2000
ENDCHAR
STARTCHAR Acircumflex
ENCODING 229
SWIDTH 693 0
DWIDTH 9 0
BBX 11 12 -2 0
BITMAP
0040
00C0
0000
0080
0180
0280
0280
0480
0F80
0880
1080
2080
ENDCHAR
STARTCHAR Ecircumflex
ENCODING 230
SWIDTH 662 0
DWIDTH 9 0
BBX 9 12 0 0
BITMAP
0600
0600
0A00
0000
1F80
1000
1000
3E00
2000
2000
2000
6300
ENDCHAR
STARTCHAR Aacute
ENCODING 231
SWIDTH 693 0
DWIDTH 9 0
BBX 11 11 -2 0
BITMAP
0040
0000
0000
0080
0380
0280
0480
0F80
0880
1080
2080
ENDCHAR
STARTCHAR Edieresis
ENCODING 232
SWIDTH 662 0
DWIDTH 9 0
BBX 9 10 0 0
BITMAP
0B00
0000
1F80
1000
1000
3E00
2000
2000
2000
6300
ENDCHAR
STARTCHAR Egrave
ENCODING 233
SWIDTH 662 0
DWIDTH 9 0
BBX 9 12 0 0
BITMAP
0400
0400
0400
0200
1F80
1000
1000
3E00
2000
2000
2000
6300
ENDCHAR
STARTCHAR Iacute
ENCODING 234
SWIDTH 356 0
DWIDTH 5 0
BBX 6 11 0 0
BITMAP
08
00
00
18
10
10
30
20
20
20
60
ENDCHAR
STARTCHAR Icircumflex
ENCODING 235
SWIDTH 356 0
DWIDTH 5 0
BBX 6 12 0 0
BITMAP
08
18
24
00
18
10
10
30
20
20
20
60
ENDCHAR
STARTCHAR Idieresis
ENCODING 236
SWIDTH 356 0
DWIDTH 5 0
BBX 7 10 -1 0
BITMAP
12
00
1C
18
18
10
10
10
30
30
ENDCHAR
STARTCHAR Igrave
ENCODING 237
SWIDTH 356 0
DWIDTH 5 0
BBX 6 12 0 0
BITMAP
10
10
10
00
18
10
10
30
20
20
20
60
ENDCHAR
STARTCHAR Oacute
ENCODING 238
SWIDTH 819 0
DWIDTH 11 0
BBX 10 11 1 0
BITMAP
0200
0400
0000
1E00
6100
4080
8080
8080
8180
4100
2600
ENDCHAR
STARTCHAR Ocircumflex
ENCODING 239
SWIDTH 819 0
DWIDTH 11 0
BBX 10 12 1 0
BITMAP
0200
0600
0A00
0000
1E00
6100
4080
8080
8080
8180
4100
2600
ENDCHAR
STARTCHAR Ograve
ENCODING 241
SWIDTH 819 0
DWIDTH 11 0
BBX 10 12 1 0
BITMAP
0400
0400
0400
0000
1E00
6100
4080
8080
8080
8180
4100
2600
ENDCHAR
STARTCHAR Uacute
ENCODING 242
SWIDTH 740 0
DWIDTH 10 0
BBX 11 11 0 0
BITMAP
0100
0200
0000
30C0
2080
2080
6080
4100
4100
4100
3200
ENDCHAR
STARTCHAR Ucircumflex
ENCODING 243
SWIDTH 740 0
DWIDTH 10 0
BBX 11 11 0 0
BITMAP
0200
0500
0000
30C0
2080
2080
6080
4100
4100
4100
3200
ENDCHAR
STARTCHAR Ugrave
ENCODING 244
SWIDTH 740 0
DWIDTH 10 0
BBX 11 12 0 0
BITMAP
0400
0400
0400
0200
30C0
2080
2080
6080
4100
4100
4100
3200
ENDCHAR
STARTCHAR dotlessi
ENCODING 245
SWIDTH 255 0
DWIDTH 3 0
BBX 3 6 0 0
BITMAP
20
40
40
40
40
40
ENDCHAR
STARTCHAR circumflex
ENCODING 246
SWIDTH 339 0
DWIDTH 4 0
BBX 4 3 1 6
BITMAP
20
60
10
ENDCHAR
STARTCHAR tilde
ENCODING 247
SWIDTH 339 0
DWIDTH 4 0
BBX 5 3 1 6
BITMAP
40
B0
30
ENDCHAR
STARTCHAR macron
ENCODING 248
SWIDTH 339 0
DWIDTH 4 0
BBX 5 1 1 7
BITMAP
F0
ENDCHAR
STARTCHAR breve
ENCODING 249
SWIDTH 339 0
DWIDTH 4 0
BBX 5 1 1 6
BITMAP
60
ENDCHAR
STARTCHAR dotaccent
ENCODING 250
SWIDTH 339 0
DWIDTH 4 0
BBX 2 1 2 6
BITMAP
40
ENDCHAR
STARTCHAR ring
ENCODING 251
SWIDTH 339 0
DWIDTH 4 0
BBX 3 2 2 6
BITMAP
E0
E0
ENDCHAR
STARTCHAR cedilla
ENCODING 252
SWIDTH 339 0
DWIDTH 4 0
BBX 3 3 0 -3
BITMAP
20
20
E0
ENDCHAR
STARTCHAR hungarumlaut
ENCODING 253
SWIDTH 339 0
DWIDTH 4 0
BBX 5 2 1 6
BITMAP
70
40
ENDCHAR
STARTCHAR ogonek
ENCODING 254
SWIDTH 339 0
DWIDTH 4 0
BBX 4 4 0 -3
BITMAP
80
80
80
60
ENDCHAR
STARTCHAR caron
ENCODING 255
SWIDTH 339 0
DWIDTH 4 0
BBX 5 2 1 6
BITMAP
60
60
ENDCHAR
ENDFONT
